<svg id="Layer_1" data-name="Layer 1" xmlns="http://www.w3.org/2000/svg" viewBox="0 0 273.52 260"><defs><style>.cls-1{fill:#009cff;}</style></defs><title>alore</title><polygon class="cls-1" points="214.84 260 239 214.14 232.68 193.56 197.69 260 214.84 260"/><polygon class="cls-1" points="244.55 205.4 136.51 0 136.51 0.01 136.5 0 0 259.52 17.15 259.52 136.51 32.59 235.5 220.79 244.55 205.4"/><polygon class="cls-1" points="206.02 244.77 15.36 244.45 0 259.54 213.91 260 206.02 244.77"/><polygon class="cls-1" points="265.64 244.77 234.58 244.45 218.91 259.97 273.52 260 265.64 244.77"/><polygon class="cls-1" points="236.05 259.97 252.54 228.03 246.22 208.13 218.91 259.97 236.05 259.97"/><polygon class="cls-1" points="256.38 259.97 239.89 228.03 246.21 208.13 273.52 259.97 256.38 259.97"/></svg>