<svg xmlns="http://www.w3.org/2000/svg" viewBox="0 0 150 150"><defs><style>.a{fill:#4b4b4b;}</style></defs><title>Design and Engineering</title><path class="a" d="M65.56,47.24l4.63,4.63-5.31,5.31a1.73,1.73,0,0,0,2.45,2.45l6.53-6.53a1.73,1.73,0,0,0,0-2.45L45,21.79a1.73,1.73,0,0,0-2.45,0L21.34,43a1.73,1.73,0,0,0,0,2.45L50.19,74.31a1.73,1.73,0,1,0,2.45-2.45L25,44.24,43.79,25.46,56,37.71,50.73,43a1.73,1.73,0,1,0,2.45,2.45l5.31-5.31,4.63,4.63ZM50.19,74.31"/><path class="a" d="M105.84,87.52l4.63,4.63-5.31,5.3a1.73,1.73,0,0,0,2.45,2.45l5.31-5.31,12.24,12.24-18.77,18.77L78.76,98a1.73,1.73,0,0,0-2.45,2.45l28.85,28.85a1.73,1.73,0,0,0,2.45,0l21.22-21.22a1.73,1.73,0,0,0,0-2.45L100,76.76a1.73,1.73,0,0,0-2.45,0L91,83.29a1.73,1.73,0,1,0,2.45,2.45l5.31-5.31,4.63,4.63ZM100,76.76"/><path class="a" d="M112.57,56.83l14.25-14.25a8.67,8.67,0,0,0,0-12.24l-6.53-6.53a8.67,8.67,0,0,0-12.24,0l-3.26,3.26a1.73,1.73,0,0,0,2.45,2.45l3.27-3.27a5.2,5.2,0,0,1,7.35,0l6.53,6.53a5.2,5.2,0,0,1,0,7.35l-6.94,6.94L102.33,32a1.73,1.73,0,0,0-2.45,0L93.8,38.06l-61,61h0l0,0a1.72,1.72,0,0,0-.32.51l-6.67,16.19v0L21,127.4a1.73,1.73,0,0,0,1.6,2.39,1.75,1.75,0,0,0,.66-.13l11.55-4.76h0L51,118.23a1.74,1.74,0,0,0,.51-.33l0,0h0ZM48.11,115.67l-13.57,5.59-5.17-5.17L35,102.52,37,99.71,101.1,35.65l5.71,5.71,2.45,2.45L115,49.52,50.91,113.59Zm-20.17,3.89,3.13,3.13-5.32,2.19Zm0,0"/></svg>