<svg id="Layer_1" data-name="Layer 1" xmlns="http://www.w3.org/2000/svg" viewBox="0 0 260.01 247.29"><defs><style>.cls-1{fill:#ca2f69;}.cls-2{fill:#7b71a8;}.cls-3{fill:#3e9ad3;}.cls-4{fill:#3fbbec;}.cls-5{fill:#96c3e8;}</style></defs><title>cognihealth</title><path class="cls-1" d="M50.29,111.27c-7.5.48-14,3-19.27,8.08-13.41,12.91-16.75,36,3.3,51.18,9.09,6.87,19.43,9,30.57,8.29,12.16-.77,23.75-4,35.11-8.15a254.15,254.15,0,0,0,39.16-18.45c.3-.17.58-.38,1.07-.71-1.5-6.06-2.9-12.2-4.56-18.28-3.86-14.16-8.72-28-15.62-41-4.67-8.81-10-17.18-17.86-23.54C91.84,60.32,80.06,57.17,67,60.44c-8.77,2.19-15,7.8-19.23,15.7A32.51,32.51,0,0,0,43.9,96.83,30.72,30.72,0,0,0,50.29,111.27Z" transform="translate(-20.12 -29.45)"/><path class="cls-2" d="M113.88,56.42c-5.16-5.48-11.26-8.87-18.53-9.7C76.84,44.62,56.87,56.81,58,81.93c.51,11.39,5.47,20.72,13.13,28.86,8.36,8.89,18.25,15.75,28.7,21.87A254.39,254.39,0,0,0,139,151.07c.32.12.66.2,1.23.37,3.71-5,7.56-10,11.18-15.18,8.45-12,16-24.57,21.61-38.2,3.81-9.23,6.84-18.69,6.75-28.8-.13-13.35-5.22-24.45-16.1-32.45-7.29-5.36-15.62-6.62-24.38-4.8a32.54,32.54,0,0,0-18.4,10.25A30.74,30.74,0,0,0,113.88,56.42Z" transform="translate(-20.12 -29.45)"/><path class="cls-3" d="M211.1,72.71c2-7.83,1.54-15.31-1.91-22.37-8.78-18-31.34-29-53.42-13.5-10,7-15.6,16.91-18.56,28.53C134,78.07,133.49,91,134,104a273,273,0,0,0,6,46.12c.08.36.2.72.37,1.33,6.69.46,13.43,1.06,20.19,1.36,15.75.72,31.47.3,47-2.47,10.55-1.88,20.87-4.59,30-10.5,12-7.82,19.11-18.83,20.08-33.29.65-9.69-3-18-9.72-24.84-5.48-5.64-12-9.5-19.89-10.74A33,33,0,0,0,211.1,72.71Z" transform="translate(-20.12 -29.45)"/><path class="cls-4" d="M254.18,171.19c8.4-2.71,15-7.47,19.58-14.77,11.51-18.56,8.61-45.85-18.57-57.26-12.33-5.18-24.71-4.6-37.18-.58C204.39,103,192.15,110,180.43,118a298.3,298.3,0,0,0-39.19,32.32c-.29.28-.55.6-1,1.12,3.46,6.45,6.83,13,10.48,19.47,8.5,15,18,29.28,29.63,42.07,7.87,8.66,16.37,16.63,27.13,21.6,14.21,6.56,28.53,6.73,42.47-.78,9.34-5,14.85-13.23,17.32-23.43,2-8.35,1.81-16.62-1.63-24.64A36.05,36.05,0,0,0,254.18,171.19Z" transform="translate(-20.12 -29.45)"/><path class="cls-5" d="M139.14,159.95c5.58,7.94,22,37.19,39.14,56.07,1,1,4.88,5.63,5.25,8.13,1.15,7.69-3.29,29.72,4.5,50.87,0,0-.81,2.74-5,1.3-9.6-3.29-50.83-73.76-51.93-113.78C131,159.95,136,155.46,139.14,159.95Z" transform="translate(-20.12 -29.45)"/></svg>