<svg id="Layer_1" data-name="Layer 1" xmlns="http://www.w3.org/2000/svg" viewBox="0 0 260 91.09"><defs><style>.cls-1{fill:#f5ea14;}.cls-1,.cls-2,.cls-3,.cls-4,.cls-5,.cls-6,.cls-7{opacity:0.5;isolation:isolate;}.cls-2{fill:#f16631;}.cls-3{fill:#eb1d25;}.cls-4{fill:#982f85;}.cls-5{fill:#222160;}.cls-6{fill:#33c5f3;}.cls-7{fill:#69bc45;}</style></defs><title>jiyo</title><path class="cls-1" d="M233.09,103a31.07,31.07,0,0,0-.82,62.12,15.84,15.84,0,1,1,1.63,0,31.07,31.07,0,0,0-.81-62.12Z" transform="translate(-19 -103)"/><path class="cls-2" d="M240.5,115.54a31.07,31.07,0,1,0,5,43.65h0A15.83,15.83,0,1,1,242.88,137l.06,0a15.84,15.84,0,0,1,2.54,22.24,31.06,31.06,0,0,0-4.92-43.65Z" transform="translate(-19 -103)"/><path class="cls-3" d="M248.68,146.53a15.94,15.94,0,1,1-.17-.79,31.25,31.25,0,1,0,.17.79Z" transform="translate(-19 -103)"/><path class="cls-4" d="M239.87,135a15.86,15.86,0,1,1-.74-.33,30.64,30.64,0,1,0,.74.33Z" transform="translate(-19 -103)"/><path class="cls-5" d="M267.64,149.39a31,31,0,0,0-40.8-14.65,15.78,15.78,0,1,1-1.47.71,31.07,31.07,0,1,0,42.27,13.94Z" transform="translate(-19 -103)"/><path class="cls-6" d="M254.65,122.32a31.07,31.07,0,0,0-37.06,23.6,15.83,15.83,0,1,1,12,18.89h0a15.83,15.83,0,0,1-12-18.89,31.07,31.07,0,1,0,37.06-23.6Z" transform="translate(-19 -103)"/><path class="cls-7" d="M269.06,120.23a31.07,31.07,0,1,0-48.29,39.11h0a15.86,15.86,0,1,1,.53.62,31.06,31.06,0,0,0,47.76-39.73Z" transform="translate(-19 -103)"/><path d="M56.23,108.54H72.72V164a26.52,26.52,0,0,1-3.38,13.49,23,23,0,0,1-9.54,9,29.83,29.83,0,0,1-13.9,3.19q-12.7,0-19.79-6.47T19,165H35.6q0,5.89,2.48,8.69t7.81,2.8a9.46,9.46,0,0,0,7.53-3.24q2.8-3.24,2.81-9.23Z" transform="translate(-19 -103)"/><path d="M107.37,188.59H90.88v-80h16.49Z" transform="translate(-19 -103)"/><path d="M154.34,144.62,171,108.54h18l-26.28,51v29H146v-29l-26.28-51h18.09Z" transform="translate(-19 -103)"/></svg>