<svg xmlns="http://www.w3.org/2000/svg" viewBox="0 0 148.97 71.4"><title>DTALE New Logo</title><path d="M221.89,114.75h-144a2.51,2.51,0,0,0-2.5,2.5v66.4a2.51,2.51,0,0,0,2.5,2.5h144a2.51,2.51,0,0,0,2.5-2.5v-66.4A2.51,2.51,0,0,0,221.89,114.75Zm-2.5,63.9a2.51,2.51,0,0,1-2.5,2.5h-134a2.51,2.51,0,0,1-2.5-2.5v-56.4a2.51,2.51,0,0,1,2.5-2.5h134a2.51,2.51,0,0,1,2.5,2.5Z" transform="translate(-75.43 -114.75)"/><path d="M106.53,131.2a12.79,12.79,0,0,1,4.45,5.45A20,20,0,0,1,111,152a12.79,12.79,0,0,1-4.45,5.45,12,12,0,0,1-7,2H89.22a2.59,2.59,0,0,1-2.64-2.64v-25a2.59,2.59,0,0,1,2.64-2.64H99.55A12,12,0,0,1,106.53,131.2ZM105,151.61a14.54,14.54,0,0,0,0-14.57,6.59,6.59,0,0,0-5.82-2.88H92v20.32h7.13A6.58,6.58,0,0,0,105,151.61Z" transform="translate(-75.43 -114.75)"/><path d="M138.42,129.88a2.38,2.38,0,0,1,.74,1.82,2.31,2.31,0,0,1-.74,1.79,2.71,2.71,0,0,1-1.9.67h-6.79v22.66a2.45,2.45,0,0,1-.82,1.88,2.89,2.89,0,0,1-2,.76,2.73,2.73,0,0,1-2-.76,2.52,2.52,0,0,1-.78-1.88V134.16h-6.79a2.66,2.66,0,0,1-1.9-.69,2.38,2.38,0,0,1-.74-1.82,2.29,2.29,0,0,1,.76-1.77,2.68,2.68,0,0,1,1.88-.69h19.2A2.67,2.67,0,0,1,138.42,129.88Z" transform="translate(-75.43 -114.75)"/><path d="M165.49,157.12a2.45,2.45,0,0,1-.74,1.84,2.36,2.36,0,0,1-1.69.71,2.27,2.27,0,0,1-1.41-.48,3.08,3.08,0,0,1-1-1.3l-2.25-5.23H145.56l-2.25,5.28a2.66,2.66,0,0,1-.93,1.28,2.2,2.2,0,0,1-3.65-1.79,2.86,2.86,0,0,1,.13-.82l10.77-25.86a2.87,2.87,0,0,1,1-1.34,2.27,2.27,0,0,1,1.56-.39,2.53,2.53,0,0,1,1.45.45,2.57,2.57,0,0,1,1,1.28l10.64,25.34A2.92,2.92,0,0,1,165.49,157.12Zm-17.82-9.43h8.65L152,137.58Z" transform="translate(-75.43 -114.75)"/><path d="M187.74,155.11a2.41,2.41,0,0,1,.76,1.84,2.36,2.36,0,0,1-.76,1.79,2.64,2.64,0,0,1-1.88.71H171.81a2.59,2.59,0,0,1-2.64-2.64v-25a2.52,2.52,0,0,1,.78-1.88,2.74,2.74,0,0,1,2-.76,2.58,2.58,0,0,1,1.86.76,2.52,2.52,0,0,1,.78,1.88V154.4h11.29A2.64,2.64,0,0,1,187.74,155.11Z" transform="translate(-75.43 -114.75)"/><path d="M212.47,155.24a2.41,2.41,0,0,1,.76,1.75,2.3,2.3,0,0,1-.76,1.77,2.68,2.68,0,0,1-1.88.69H196.11a2.59,2.59,0,0,1-2.64-2.64v-25a2.59,2.59,0,0,1,2.64-2.64h14.49a2.64,2.64,0,0,1,1.88.71,2.41,2.41,0,0,1,.76,1.84,2.26,2.26,0,0,1-.74,1.75,2.71,2.71,0,0,1-1.9.67H198.87v7.35h9.77a2.64,2.64,0,0,1,1.88.71,2.41,2.41,0,0,1,.76,1.84,2.26,2.26,0,0,1-.74,1.75,2.71,2.71,0,0,1-1.9.67h-9.77v8h11.72A2.56,2.56,0,0,1,212.47,155.24Z" transform="translate(-75.43 -114.75)"/><path d="M87,171.5a.44.44,0,0,1-.13-.32v-6a.45.45,0,0,1,.13-.32.43.43,0,0,1,.32-.14h2a3.52,3.52,0,0,1,1.93.5,3.24,3.24,0,0,1,1.19,1.3,3.71,3.71,0,0,1,0,3.35,3.25,3.25,0,0,1-1.19,1.3,3.52,3.52,0,0,1-1.93.5h-2A.43.43,0,0,1,87,171.5Zm2.21-.72a3,3,0,0,0,1.43-.33,2.39,2.39,0,0,0,1-.93,2.94,2.94,0,0,0,0-2.74,2.38,2.38,0,0,0-1-.93,3,3,0,0,0-1.43-.33H87.78v5.26Z" transform="translate(-75.43 -114.75)"/><path d="M98.6,171.5a.44.44,0,0,1-.13-.32v-6a.45.45,0,0,1,.13-.32.43.43,0,0,1,.32-.14h4a.43.43,0,0,1,.43.43.4.4,0,0,1-.12.3.42.42,0,0,1-.3.12H99.38v2.2h3.18a.43.43,0,0,1,.43.43.4.4,0,0,1-.12.3.42.42,0,0,1-.3.12H99.38v2.21h3.54a.43.43,0,0,1,.43.43.4.4,0,0,1-.12.3.42.42,0,0,1-.3.12h-4A.43.43,0,0,1,98.6,171.5Z" transform="translate(-75.43 -114.75)"/><path d="M108.77,171.25a.46.46,0,0,1-.2-.16.42.42,0,0,1,0-.54.38.38,0,0,1,.29-.12.47.47,0,0,1,.19,0,4.76,4.76,0,0,0,2,.41q1.74,0,1.74-1.15a.64.64,0,0,0-.22-.5,1.64,1.64,0,0,0-.55-.31q-.33-.12-.94-.27a11.93,11.93,0,0,1-1.31-.4,2.27,2.27,0,0,1-.86-.58,1.47,1.47,0,0,1-.36-1,1.86,1.86,0,0,1,.3-1,2.06,2.06,0,0,1,.88-.74,3.27,3.27,0,0,1,1.4-.27,5.68,5.68,0,0,1,2,.33.39.39,0,0,1,.28.4.44.44,0,0,1-.11.29.36.36,0,0,1-.29.13l-.16,0a4.85,4.85,0,0,0-1.6-.27,2.45,2.45,0,0,0-1.28.3.93.93,0,0,0-.49.84.77.77,0,0,0,.23.58,1.61,1.61,0,0,0,.59.35,9.15,9.15,0,0,0,1,.26,10,10,0,0,1,1.27.38,2.07,2.07,0,0,1,.83.59,1.59,1.59,0,0,1,.34,1.08,1.68,1.68,0,0,1-.32,1,2.09,2.09,0,0,1-.9.69,3.34,3.34,0,0,1-1.34.25A5.91,5.91,0,0,1,108.77,171.25Z" transform="translate(-75.43 -114.75)"/><path d="M119.33,171.55a.44.44,0,0,1-.13-.32v-6.15a.45.45,0,0,1,.13-.32.42.42,0,0,1,.32-.14.46.46,0,0,1,.46.46v6.15a.43.43,0,0,1-.13.32.45.45,0,0,1-.32.13A.43.43,0,0,1,119.33,171.55Z" transform="translate(-75.43 -114.75)"/><path d="M127.42,171.28a3.14,3.14,0,0,1-1.24-1.27,3.82,3.82,0,0,1-.44-1.85,3.77,3.77,0,0,1,.46-1.87,3.26,3.26,0,0,1,1.25-1.27,3.51,3.51,0,0,1,1.76-.45,4.4,4.4,0,0,1,1.36.19,4.94,4.94,0,0,1,1.12.53.36.36,0,0,1,.14.14.42.42,0,0,1,.06.22.4.4,0,0,1-.42.41.46.46,0,0,1-.21,0,4.14,4.14,0,0,0-.94-.42,3.54,3.54,0,0,0-1-.14,2.89,2.89,0,0,0-1.37.32,2.3,2.3,0,0,0-1,.93,3.21,3.21,0,0,0,0,2.85,2.39,2.39,0,0,0,.94,1,2.85,2.85,0,0,0,1.45.35,3.59,3.59,0,0,0,1.74-.44v-1.8h-1.64a.41.41,0,1,1,0-.82h2a.48.48,0,0,1,.48.48v2.26a.68.68,0,0,1-.11.37.65.65,0,0,1-.27.24,5.05,5.05,0,0,1-2.28.56A3.62,3.62,0,0,1,127.42,171.28Z" transform="translate(-75.43 -114.75)"/><path d="M137.95,171.55a.44.44,0,0,1-.13-.32v-5.95a.64.64,0,0,1,.19-.46.62.62,0,0,1,.46-.19h.13a.68.68,0,0,1,.55.3l3.84,5.54v-5.38a.45.45,0,0,1,.13-.32.42.42,0,0,1,.32-.14.46.46,0,0,1,.46.46v6a.62.62,0,0,1-.19.46.64.64,0,0,1-.46.19h-.12a.61.61,0,0,1-.3-.07.68.68,0,0,1-.23-.19l-3.86-5.57v5.39a.43.43,0,0,1-.13.32.45.45,0,0,1-.32.13A.43.43,0,0,1,137.95,171.55Z" transform="translate(-75.43 -114.75)"/><path d="M156.47,171.25a.46.46,0,0,1-.2-.16.42.42,0,0,1,0-.54.38.38,0,0,1,.29-.12.47.47,0,0,1,.19,0,4.76,4.76,0,0,0,2,.41q1.74,0,1.74-1.15a.64.64,0,0,0-.22-.5,1.64,1.64,0,0,0-.55-.31q-.33-.12-.94-.27a11.93,11.93,0,0,1-1.31-.4,2.27,2.27,0,0,1-.86-.58,1.47,1.47,0,0,1-.36-1,1.86,1.86,0,0,1,.3-1,2.06,2.06,0,0,1,.88-.74,3.27,3.27,0,0,1,1.4-.27,5.68,5.68,0,0,1,2,.33.39.39,0,0,1,.28.4.44.44,0,0,1-.11.29.36.36,0,0,1-.29.13l-.16,0a4.85,4.85,0,0,0-1.6-.27,2.45,2.45,0,0,0-1.28.3.93.93,0,0,0-.49.84.77.77,0,0,0,.23.58,1.61,1.61,0,0,0,.59.35,9.15,9.15,0,0,0,1,.26,10,10,0,0,1,1.27.38,2.07,2.07,0,0,1,.83.59,1.59,1.59,0,0,1,.34,1.08,1.68,1.68,0,0,1-.32,1,2.09,2.09,0,0,1-.9.69,3.34,3.34,0,0,1-1.34.25A5.91,5.91,0,0,1,156.47,171.25Z" transform="translate(-75.43 -114.75)"/><path d="M168.28,171.55a.43.43,0,0,1-.13-.32v-5.71h-2a.41.41,0,0,1-.42-.42.42.42,0,0,1,.12-.3.4.4,0,0,1,.3-.12h5a.43.43,0,0,1,.43.43.4.4,0,0,1-.12.3.42.42,0,0,1-.3.12h-2v5.71a.43.43,0,0,1-.13.32.45.45,0,0,1-.32.13A.43.43,0,0,1,168.28,171.55Z" transform="translate(-75.43 -114.75)"/><path d="M178.16,171.43a2.53,2.53,0,0,1-1.49-2.41v-3.94a.45.45,0,0,1,.13-.32.42.42,0,0,1,.32-.14.46.46,0,0,1,.46.46v4a1.81,1.81,0,0,0,.27,1,1.71,1.71,0,0,0,.72.63,2.29,2.29,0,0,0,1.91,0,1.71,1.71,0,0,0,.72-.63,1.81,1.81,0,0,0,.27-1v-4a.45.45,0,0,1,.13-.32.42.42,0,0,1,.32-.14.46.46,0,0,1,.46.46V169a2.53,2.53,0,0,1-1.49,2.41,3.27,3.27,0,0,1-2.73,0Z" transform="translate(-75.43 -114.75)"/><path d="M188.52,171.5a.44.44,0,0,1-.13-.32v-6a.45.45,0,0,1,.13-.32.43.43,0,0,1,.32-.14h2a3.52,3.52,0,0,1,1.93.5,3.24,3.24,0,0,1,1.19,1.3,3.71,3.71,0,0,1,0,3.35,3.25,3.25,0,0,1-1.19,1.3,3.52,3.52,0,0,1-1.93.5h-2A.43.43,0,0,1,188.52,171.5Zm2.21-.72a3,3,0,0,0,1.43-.33,2.39,2.39,0,0,0,1-.93,2.94,2.94,0,0,0,0-2.74,2.38,2.38,0,0,0-1-.93,3,3,0,0,0-1.43-.33H189.3v5.26Z" transform="translate(-75.43 -114.75)"/><path d="M200.12,171.55a.44.44,0,0,1-.13-.32v-6.15a.45.45,0,0,1,.13-.32.42.42,0,0,1,.32-.14.46.46,0,0,1,.46.46v6.15a.43.43,0,0,1-.13.32.45.45,0,0,1-.32.13A.43.43,0,0,1,200.12,171.55Z" transform="translate(-75.43 -114.75)"/><path d="M208.19,171.27A3.14,3.14,0,0,1,207,170a4.05,4.05,0,0,1,0-3.71,3.14,3.14,0,0,1,1.22-1.27,3.89,3.89,0,0,1,3.66,0,3.17,3.17,0,0,1,1.22,1.27,4,4,0,0,1,0,3.7,3.18,3.18,0,0,1-1.22,1.27,3.89,3.89,0,0,1-3.66,0Zm3.22-.75a2.35,2.35,0,0,0,.9-1,3.3,3.3,0,0,0,0-2.79,2.35,2.35,0,0,0-.9-1,2.86,2.86,0,0,0-2.78,0,2.37,2.37,0,0,0-.89,1,3.31,3.31,0,0,0,0,2.79,2.37,2.37,0,0,0,.89,1,2.86,2.86,0,0,0,2.78,0Z" transform="translate(-75.43 -114.75)"/></svg>