<svg xmlns="http://www.w3.org/2000/svg" viewBox="0 0 150 150"><defs><style>.a{fill:#4b4b4b;}.b{fill:#fff;}</style></defs><title>Design and Engineering</title><path class="a" d="M138.68,109.51V13.64H.22v95.86H66.79v21.3H48.14v5.33H90.75v-5.33H72.11v-21.3ZM5.54,19H133.36v85.21H5.54Z"/><path class="a" d="M146.12,83.8H120.6a3.1,3.1,0,0,0-3.1,3.1v46.64a3.1,3.1,0,0,0,3.1,3.1h25.52a3.1,3.1,0,0,0,3.1-3.1V86.89A3.1,3.1,0,0,0,146.12,83.8Zm2.6,3.1a2.61,2.61,0,0,0-.05-.52,2.61,2.61,0,0,1,.05.52Zm-1.92,46.64a.68.68,0,0,1-.68.68H120.6a.68.68,0,0,1-.68-.68v-8.92H146.8Z"/><rect class="a" x="130.48" y="128.46" width="5.76" height="1.92"/><path class="a" d="M136.24,128.46v1.92h-5.76v-1.92h5.76m0-1h-5.76a1,1,0,0,0-1,1v1.92a1,1,0,0,0,1,1h5.76a1,1,0,0,0,1-1v-1.92a1,1,0,0,0-1-1Z"/><rect class="b" x="119.92" y="92.01" width="26.88" height="30.69"/><path class="a" d="M146.8,92V122.7H119.92V92H146.8m0-1H119.92a1,1,0,0,0-1,1V122.7a1,1,0,0,0,1,1H146.8a1,1,0,0,0,1-1V92a1,1,0,0,0-1-1Z"/><path class="b" d="M146.8,90.09H119.92v-3.2a.68.68,0,0,1,.68-.68h25.52a.68.68,0,0,1,.68.68Z"/><path class="a" d="M146.12,86.21a.68.68,0,0,1,.68.68v3.2H119.92v-3.2a.68.68,0,0,1,.68-.68h25.52m0-1H120.6a1.68,1.68,0,0,0-1.68,1.68v3.2a1,1,0,0,0,1,1H146.8a1,1,0,0,0,1-1v-3.2a1.68,1.68,0,0,0-1.68-1.68Z"/><path class="a" d="M86,64.84a.39.39,0,0,1-.39-.4v-13a2.62,2.62,0,1,1,5.24,0v8.44a.4.4,0,0,1-.79,0V51.47a1.83,1.83,0,1,0-3.66,0v13a.39.39,0,0,1-.39.4Zm0,0"/><path class="a" d="M86,65.34a.9.9,0,0,1-.89-.9v-13a3.12,3.12,0,1,1,6.24,0v8.44a.9.9,0,0,1-1.79,0V51.47a1.34,1.34,0,1,0-2.66,0v13A.9.9,0,0,1,86,65.34Z"/><path class="a" d="M87.74,72.84a.41.41,0,0,1-.28-.11l-5.88-5.88a4.33,4.33,0,0,1-1.24-2.26,2.34,2.34,0,0,1,.56-2.12,2.67,2.67,0,0,1,3.76.06l1.63,1.63a.4.4,0,0,1-.56.56L84.11,63.1A1.87,1.87,0,0,0,81.47,63a1.55,1.55,0,0,0-.34,1.42,3.54,3.54,0,0,0,1,1.84L88,72.17a.4.4,0,0,1,0,.56.39.39,0,0,1-.28.11Zm0,0"/><path class="a" d="M87.74,73.34a.91.91,0,0,1-.62-.25l-5.89-5.89a4.83,4.83,0,0,1-1.37-2.52,2.83,2.83,0,0,1,.7-2.56,3.17,3.17,0,0,1,4.47.06l1.63,1.63a.9.9,0,0,1,0,1.27.92.92,0,0,1-1.27,0l-1.63-1.63a1.43,1.43,0,0,0-1-.43h0a1.28,1.28,0,0,0-.92.37,1.08,1.08,0,0,0-.2,1,3,3,0,0,0,.87,1.57l5.88,5.88a.9.9,0,0,1,0,1.27A.89.89,0,0,1,87.74,73.34Z"/><path class="a" d="M94.91,60.75a.39.39,0,0,1-.4-.39v-2a1.84,1.84,0,0,0-3.65,0v2a.4.4,0,0,1-.79,0v-2a2.63,2.63,0,0,1,5.24,0v2a.4.4,0,0,1-.4.39Zm0,0"/><path class="a" d="M94.91,61.25a.9.9,0,0,1-.9-.89v-2a1.35,1.35,0,0,0-2.66,0v2a.9.9,0,0,1-1.79,0v-2a3.13,3.13,0,0,1,6.24,0v2A.9.9,0,0,1,94.91,61.25Z"/><path class="a" d="M99.36,60.75a.39.39,0,0,1-.39-.39V58.69c0-.69-.84-1.27-1.83-1.27s-1.82.58-1.82,1.27v1.67a.4.4,0,0,1-.79,0V58.69a2.69,2.69,0,0,1,5.24,0v1.67a.39.39,0,0,1-.4.39Zm0,0"/><path class="a" d="M99.36,61.25a.9.9,0,0,1-.89-.89V58.69c0-.36-.58-.77-1.33-.77s-1.32.41-1.32.77v1.67a.9.9,0,0,1-1.79,0V58.69a3.18,3.18,0,0,1,6.24,0v1.67A.9.9,0,0,1,99.36,61.25Z"/><path class="a" d="M103.8,65.85a.4.4,0,0,1-.4-.4V60a1.91,1.91,0,0,0-1.83-2c-1.08,0-1.83.52-1.83,1v1.37a.4.4,0,0,1-.79,0V59c0-1,1.15-1.77,2.62-1.77A2.7,2.7,0,0,1,104.2,60v5.45a.4.4,0,0,1-.39.4Zm0,0"/><path class="a" d="M103.8,66.35a.9.9,0,0,1-.9-.9V60a1.41,1.41,0,0,0-1.33-1.48c-.83,0-1.29.35-1.33.49v1.36a.9.9,0,0,1-1.79,0V59c0-1.27,1.37-2.27,3.12-2.27A3.2,3.2,0,0,1,104.7,60v5.45A.9.9,0,0,1,103.8,66.35Z"/><path class="a" d="M100.63,72.84H87.77a.41.41,0,0,1-.41-.4.38.38,0,0,1,.38-.39h12.89a2.78,2.78,0,0,0,2.78-2.78V65a.4.4,0,0,1,.79,0v4.28a3.57,3.57,0,0,1-3.57,3.57Zm0,0"/><path class="a" d="M100.63,73.34H87.77a.91.91,0,0,1-.91-.9.88.88,0,0,1,.88-.89h12.89a2.28,2.28,0,0,0,2.28-2.28V65a.9.9,0,0,1,1.79,0v4.28A4.07,4.07,0,0,1,100.63,73.34Z"/><path class="a" d="M88.25,39.82a.4.4,0,0,1-.39-.4V35.5a.4.4,0,0,1,.79,0v3.93a.39.39,0,0,1-.4.4Zm0,0"/><path class="a" d="M88.25,40.32a.9.9,0,0,1-.89-.9V35.5a.9.9,0,0,1,1.79,0v3.93A.9.9,0,0,1,88.25,40.32Z"/><path class="a" d="M92.5,41.19a.4.4,0,0,1-.28-.12.4.4,0,0,1,0-.56L94.71,38a.39.39,0,0,1,.56,0,.4.4,0,0,1,0,.56l-2.48,2.48a.39.39,0,0,1-.28.12Zm0,0"/><path class="a" d="M92.5,41.69a.9.9,0,0,1-.64-.26.9.9,0,0,1,0-1.27l2.49-2.48a.89.89,0,0,1,1.26,0,.9.9,0,0,1,0,1.27l-2.48,2.48A.89.89,0,0,1,92.5,41.69Z"/><path class="a" d="M98.16,44.95H94.24a.4.4,0,0,1,0-.79h3.92a.4.4,0,1,1,0,.79Zm0,0"/><path class="a" d="M98.16,45.45H94.24a.9.9,0,0,1,0-1.79h3.92a.9.9,0,1,1,0,1.79Z"/><path class="a" d="M84,41.19a.39.39,0,0,1-.28-.12l-2.49-2.49a.39.39,0,0,1,0-.56.4.4,0,0,1,.56,0l2.49,2.48a.4.4,0,0,1-.28.68Zm0,0"/><path class="a" d="M84,41.69a.9.9,0,0,1-.63-.26l-2.49-2.49a.88.88,0,0,1-.26-.62.89.89,0,0,1,.26-.64.9.9,0,0,1,1.27,0l2.49,2.48A.9.9,0,0,1,84,41.69Z"/><path class="a" d="M82.25,44.95H78.32a.4.4,0,0,1,0-.79h3.92a.4.4,0,1,1,0,.79Zm0,0"/><path class="a" d="M82.25,45.45H78.32a.9.9,0,0,1,0-1.79h3.92a.9.9,0,1,1,0,1.79Z"/><path class="a" d="M35.95,79a6.47,6.47,0,1,1,6.47-6.47A6.48,6.48,0,0,1,35.95,79Zm0-11.94a5.47,5.47,0,1,0,5.47,5.47A5.47,5.47,0,0,0,35.95,67.08Z"/><circle class="a" cx="88.25" cy="46.23" r="4.05"/><path class="a" d="M82.92,48.62a6.62,6.62,0,0,0-1.35-.35l.15-1a7.62,7.62,0,0,1,1.55.41Z"/><path class="a" d="M47.27,76.27c-.6,0-1.2,0-1.8-.07l.08-1a21.33,21.33,0,0,0,3,0l.06,1Q48,76.27,47.27,76.27Zm4.51-.45-.2-1A21.53,21.53,0,0,0,54.5,74l.33.94A22.56,22.56,0,0,1,51.78,75.82Zm6-2.11-.47-.88a19.44,19.44,0,0,0,2.55-1.61l.6.8A20.48,20.48,0,0,1,57.73,73.7Zm5.06-3.81-.72-.69a17.12,17.12,0,0,0,1.51-1.82l.36-.53.83.55-.38.56A18.06,18.06,0,0,1,62.79,69.9Zm3.56-5.23-.89-.45c.39-.78.79-1.64,1.28-2.79l.92.4C67.15,63,66.75,63.87,66.35,64.67Zm2.55-5.75-.49-.14-.46-.2c.5-1.14.91-2,1.32-2.83l.89.46C69.76,57,69.35,57.85,68.89,58.92Zm2.81-5.33L70.87,53a16.67,16.67,0,0,1,2-2.46l.71.71A15.68,15.68,0,0,0,71.7,53.59Zm4.25-4.12-.5-.87a10.92,10.92,0,0,1,3-1.18l.22,1A9.92,9.92,0,0,0,75.95,49.47Z"/><path class="a" d="M42.33,75.71q-.75-.17-1.49-.4l.3-1q.7.22,1.42.38Z"/><path class="a" d="M137.17,107a.09.09,0,0,1-.09-.09v-3.09a.62.62,0,1,1,1.25,0v2a.09.09,0,0,1-.19,0v-2a.44.44,0,1,0-.87,0v3.09a.09.09,0,0,1-.09.09Zm0,0"/><path class="a" d="M137.17,107.09a.22.22,0,0,1-.22-.22v-3.09a.75.75,0,1,1,1.5,0v2a.22.22,0,0,1-.44,0v-2a.31.31,0,1,0-.62,0v3.09A.22.22,0,0,1,137.17,107.09Z"/><path class="a" d="M137.58,108.86a.1.1,0,0,1-.07,0l-1.4-1.4a1,1,0,0,1-.29-.54.56.56,0,0,1,.13-.5.63.63,0,0,1,.9,0l.39.39a.09.09,0,0,1-.13.13l-.39-.39a.44.44,0,0,0-.63,0,.37.37,0,0,0-.08.34.84.84,0,0,0,.24.44l1.4,1.4a.09.09,0,0,1,0,.13.09.09,0,0,1-.07,0Zm0,0"/><path class="a" d="M137.58,109a.22.22,0,0,1-.15-.06l-1.4-1.4a1.16,1.16,0,0,1-.33-.6.68.68,0,0,1,.17-.61.76.76,0,0,1,1.07,0l.39.39a.22.22,0,0,1-.31.31l-.39-.39a.32.32,0,0,0-.45,0,.25.25,0,0,0,0,.23.71.71,0,0,0,.21.37l1.4,1.4a.22.22,0,0,1,0,.31A.22.22,0,0,1,137.58,109Z"/><path class="a" d="M139.28,106a.09.09,0,0,1-.09-.09v-.48a.44.44,0,0,0-.87,0v.48a.09.09,0,0,1-.19,0v-.48a.63.63,0,0,1,1.25,0v.48a.09.09,0,0,1-.09.09Zm0,0"/><path class="a" d="M139.28,106.11a.22.22,0,0,1-.22-.22v-.48a.31.31,0,0,0-.62,0v.48a.22.22,0,0,1-.44,0v-.48a.75.75,0,0,1,1.5,0v.48A.22.22,0,0,1,139.28,106.11Z"/><path class="a" d="M140.34,106a.09.09,0,0,1-.09-.09v-.4c0-.16-.2-.3-.43-.3s-.43.14-.43.3v.4a.09.09,0,0,1-.19,0v-.4a.64.64,0,0,1,1.25,0v.4a.09.09,0,0,1-.09.09Zm0,0"/><path class="a" d="M140.34,106.11a.22.22,0,0,1-.22-.22v-.4c0-.08-.13-.18-.31-.18s-.31.09-.31.18v.4a.22.22,0,0,1-.44,0v-.4a.76.76,0,0,1,1.5,0v.4A.22.22,0,0,1,140.34,106.11Z"/><path class="a" d="M141.4,107.2a.09.09,0,0,1-.09-.1v-1.3a.46.46,0,0,0-.43-.47c-.26,0-.43.12-.43.23v.33a.09.09,0,0,1-.19,0v-.33c0-.24.27-.42.62-.42a.64.64,0,0,1,.62.66v1.3a.09.09,0,0,1-.09.1Zm0,0"/><path class="a" d="M141.4,107.32a.22.22,0,0,1-.22-.22v-1.3a.33.33,0,0,0-.31-.35c-.19,0-.3.08-.31.11v.32a.22.22,0,0,1-.44,0v-.33c0-.31.33-.55.75-.55a.77.77,0,0,1,.75.79v1.3A.22.22,0,0,1,141.4,107.32Z"/><path class="a" d="M140.64,108.86h-3.06a.1.1,0,0,1-.1-.09.09.09,0,0,1,.09-.09h3.07a.66.66,0,0,0,.66-.66v-1a.09.09,0,0,1,.19,0v1a.85.85,0,0,1-.85.85Zm0,0"/><path class="a" d="M140.64,109h-3.06a.22.22,0,0,1-.22-.22.22.22,0,0,1,.22-.22h3.07a.54.54,0,0,0,.54-.54v-1a.22.22,0,1,1,.44,0v1A1,1,0,0,1,140.64,109Z"/><path class="a" d="M137.7,101a.09.09,0,0,1-.09-.09V100a.09.09,0,0,1,.19,0v.93a.09.09,0,0,1-.09.09Zm0,0"/><path class="a" d="M137.7,101.13a.22.22,0,0,1-.22-.22V100a.22.22,0,0,1,.44,0v.93A.22.22,0,0,1,137.7,101.13Z"/><path class="a" d="M138.71,101.33a.1.1,0,0,1-.07,0,.09.09,0,0,1,0-.13l.59-.59a.09.09,0,0,1,.13,0,.09.09,0,0,1,0,.13l-.59.59a.09.09,0,0,1-.07,0Zm0,0"/><path class="a" d="M138.71,101.46a.22.22,0,0,1-.16-.38l.59-.59a.21.21,0,0,1,.15-.06h0a.22.22,0,0,1,.22.22.22.22,0,0,1-.06.16l-.59.59A.22.22,0,0,1,138.71,101.46Z"/><path class="a" d="M140.06,102.23h-.93a.09.09,0,0,1,0-.19h.93a.09.09,0,1,1,0,.19Zm0,0"/><path class="a" d="M140.06,102.35h-.93a.22.22,0,0,1,0-.44h.93a.22.22,0,1,1,0,.44Z"/><path class="a" d="M136.68,101.33a.09.09,0,0,1-.07,0l-.59-.59a.09.09,0,0,1,0-.13.09.09,0,0,1,.13,0l.59.59a.09.09,0,0,1-.07.16Zm0,0"/><path class="a" d="M136.68,101.46a.22.22,0,0,1-.16-.06l-.59-.59a.21.21,0,0,1-.06-.15.22.22,0,0,1,.06-.16.23.23,0,0,1,.31,0l.59.59a.22.22,0,0,1-.16.38Z"/><path class="a" d="M136.27,102.23h-.93a.09.09,0,0,1,0-.19h.93a.09.09,0,1,1,0,.19Zm0,0"/><path class="a" d="M136.27,102.35h-.93a.22.22,0,1,1,0-.44h.93a.22.22,0,0,1,0,.44Z"/><path class="a" d="M125.26,110.46a1.67,1.67,0,1,1,1.67-1.67A1.67,1.67,0,0,1,125.26,110.46Zm0-2.84a1.17,1.17,0,1,0,1.17,1.17A1.17,1.17,0,0,0,125.26,107.62Z"/><circle class="a" cx="137.7" cy="102.53" r="0.96"/><path class="a" d="M136.38,103.22a1.49,1.49,0,0,0-.42-.09l0-.5a2,2,0,0,1,.56.12Z"/><path class="a" d="M127.95,109.81l-.06-.5a5.26,5.26,0,0,0,.89-.07l.08.49A5.43,5.43,0,0,1,127.95,109.81Zm1.87-.33-.17-.47a4.63,4.63,0,0,0,.81-.38l.26.43A5.1,5.1,0,0,1,129.82,109.48Zm1.69-1-.34-.37a4,4,0,0,0,.55-.62l.44.24,0,.06A4.44,4.44,0,0,1,131.51,108.48Zm1.14-1.59-.45-.22c.13-.28.26-.56.38-.85l.46.2C132.92,106.3,132.79,106.6,132.65,106.88Zm.76-1.72-.45-.22a6.6,6.6,0,0,1,.48-.85l.41.28A6.05,6.05,0,0,0,133.42,105.16Zm1-1.46-.35-.36a3,3,0,0,1,.88-.54l.18.46A2.47,2.47,0,0,0,134.43,103.71Z"/><path class="a" d="M126.89,109.71l-.51-.13.15-.48.46.12Z"/></svg>