<svg xmlns="http://www.w3.org/2000/svg" viewBox="0 0 150 150"><defs><style>.a{fill:#4b4b4b;}</style></defs><title>Design and Engineering</title><rect class="a" x="42.35" y="37.63" width="76.1" height="4.95"/><polygon class="a" points="22.37 38.82 22.05 39.14 22.78 39.86 20.86 39.86 20.86 40.31 22.78 40.31 22.05 41.03 22.37 41.35 23.63 40.08 22.37 38.82"/><polygon class="a" points="17.41 38.82 17.73 39.14 17.01 39.86 18.93 39.86 18.93 40.31 17.01 40.31 17.73 41.03 17.41 41.35 16.15 40.08 17.41 38.82"/><path class="a" d="M28,38.82s0,0,0,0q0,.57,0,1.15l-1.18-.22v0l.37-.3s0,0,0,0a.78.78,0,0,0-.32-.12.74.74,0,0,0-.41.06A.78.78,0,0,0,26,40a.79.79,0,0,0,.41.79.79.79,0,0,0,.46.09.77.77,0,0,0,.46-.21.76.76,0,0,0,.17-.24s0,0,0,0l.42.1s0,0,0,0a1.26,1.26,0,0,1-1.47.76,1.24,1.24,0,0,1-.77-.56,1.17,1.17,0,0,1-.17-.47V40a0,0,0,0,0,0,0,1,1,0,0,1,0-.18,1.24,1.24,0,0,1,.43-.69,1.24,1.24,0,0,1,1.58,0h0l.38-.3Z"/><path class="a" d="M32.67,40.16l.14-.16h0l-1.3-1.16h0l-.13.12-1.16,1,0,0h0l.14.16.26-.23c0,.38,0,1,0,1.34a.08.08,0,0,0,0,.08h.61s0-.06,0-.09,0-.8,0-.94a.06.06,0,0,1,.07-.07h.46s.07,0,.07.07,0,.86,0,1v0h.61a.08.08,0,0,0,0-.08c0-.36,0-1,0-1.34Z"/><path class="a" d="M30.86,39.2v0c0-.06,0-.13,0-.19h-.34v.5h0Z"/><path class="a" d="M126.48,41.84a.74.74,0,0,1-.73.74H36.08a.74.74,0,0,1-.73-.74V38.32a.74.74,0,0,1,.73-.74h89.67a.74.74,0,0,1,.73.74Z"/><path class="a" d="M38.5,40.26a.81.81,0,1,0-.17.19l.72.72.18-.18Zm-.67.09a.54.54,0,1,1,.54-.54A.54.54,0,0,1,37.83,40.35Z"/><rect class="a" x="131.34" y="38.32" width="3.73" height="0.7" rx="0.14" ry="0.14"/><rect class="a" x="131.34" y="39.76" width="3.73" height="0.7" rx="0.14" ry="0.14"/><rect class="a" x="131.34" y="41.19" width="3.73" height="0.7" rx="0.14" ry="0.14"/><path class="a" d="M78.29,123.92h67.16V27.21H5.76v96.7H78.29ZM11.13,32.58H140.07v86H11.13Zm2.07-2.78a1,1,0,1,1-1-1A1,1,0,0,1,13.2,29.81Zm3.36,0a1,1,0,1,1-1-1A1,1,0,0,1,16.56,29.81Zm3.36,0a1,1,0,1,1-1-1A1,1,0,0,1,19.92,29.81Z"/><path class="a" d="M101.76,79.7,119,85.8a.41.41,0,0,1,.11.73l-4.23,3.1,5.12,5.12a.41.41,0,0,1,0,.59l-3.1,3.1a.41.41,0,0,1-.59,0l-5.12-5.12-3.09,4.23a.41.41,0,0,1-.73-.11l-6.1-17.2a.42.42,0,0,1,.53-.53Zm0,0"/></svg>